<svg version="1.1" xmlns="http://www.w3.org/2000/svg" xmlns:xlink="http://www.w3.org/1999/xlink">
    <defs>

        <symbol id="fa-restore"  viewBox="0 0 42 42">
            <path d="M2.58325 3.58325L7.84977 8.84977C4.60115 12.0905 2.58325 16.5598 2.58325 21.4999C2.58325 31.3792 10.6207 39.4166 20.4999 39.4166C30.3792 39.4166 38.4166 31.3792 38.4166 21.4999C38.4166 11.6207 30.3792 3.58325 20.4999 3.58325V7.16659C28.403 7.16659 34.8333 13.5969 34.8333 21.4999C34.8333 29.403 28.403 35.8333 20.4999 35.8333C12.5969 35.8333 6.16659 29.403 6.16659 21.4999C6.16659 17.5475 7.77994 13.97 10.3763 11.3763L15.1249 16.1249V3.58325H2.58325Z"/>
        </symbol>
        <symbol id="icon-edit" viewBox="0 0 512 512">
            <path d="M490.3 40.4C512.2 62.27 512.2 97.73 490.3 119.6L460.3 149.7L362.3 51.72L392.4 21.66C414.3-.2135 449.7-.2135 471.6 21.66L490.3 40.4zM172.4 241.7L339.7 74.34L437.7 172.3L270.3 339.6C264.2 345.8 256.7 350.4 248.4 353.2L159.6 382.8C150.1 385.6 141.5 383.4 135 376.1C128.6 370.5 126.4 361 129.2 352.4L158.8 263.6C161.6 255.3 166.2 247.8 172.4 241.7V241.7zM192 63.1C209.7 63.1 224 78.33 224 95.1C224 113.7 209.7 127.1 192 127.1H96C78.33 127.1 64 142.3 64 159.1V416C64 433.7 78.33 448 96 448H352C369.7 448 384 433.7 384 416V319.1C384 302.3 398.3 287.1 416 287.1C433.7 287.1 448 302.3 448 319.1V416C448 469 405 512 352 512H96C42.98 512 0 469 0 416V159.1C0 106.1 42.98 63.1 96 63.1H192z"/>
        </symbol>
        <symbol id="icon-trash" viewBox="0 0 448 512">
            <path d="M135.2 17.69C140.6 6.848 151.7 0 163.8 0H284.2C296.3 0 307.4 6.848 312.8 17.69L320 32H416C433.7 32 448 46.33 448 64C448 81.67 433.7 96 416 96H32C14.33 96 0 81.67 0 64C0 46.33 14.33 32 32 32H128L135.2 17.69zM31.1 128H416V448C416 483.3 387.3 512 352 512H95.1C60.65 512 31.1 483.3 31.1 448V128zM111.1 208V432C111.1 440.8 119.2 448 127.1 448C136.8 448 143.1 440.8 143.1 432V208C143.1 199.2 136.8 192 127.1 192C119.2 192 111.1 199.2 111.1 208zM207.1 208V432C207.1 440.8 215.2 448 223.1 448C232.8 448 240 440.8 240 432V208C240 199.2 232.8 192 223.1 192C215.2 192 207.1 199.2 207.1 208zM304 208V432C304 440.8 311.2 448 320 448C328.8 448 336 440.8 336 432V208C336 199.2 328.8 192 320 192C311.2 192 304 199.2 304 208z"/>
        </symbol>
        <symbol id="icon-search" viewBox="0 0 512 512">
            <path d="M500.3 443.7l-119.7-119.7c27.22-40.41 40.65-90.9 33.46-144.7C401.8 87.79 326.8 13.32 235.2 1.723C99.01-15.51-15.51 99.01 1.724 235.2c11.6 91.64 86.08 166.7 177.6 178.9c53.8 7.189 104.3-6.236 144.7-33.46l119.7 119.7c15.62 15.62 40.95 15.62 56.57 0C515.9 484.7 515.9 459.3 500.3 443.7zM79.1 208c0-70.58 57.42-128 128-128s128 57.42 128 128c0 70.58-57.42 128-128 128S79.1 278.6 79.1 208z"/>
        </symbol>

        <symbol id="dashboard" viewBox="0 0 512 512">
            <path d="M512 256C512 397.4 397.4 512 256 512C114.6 512 0 397.4 0 256C0 114.6 114.6 0 256 0C397.4 0 512 114.6 512 256zM280 292.7V88C280 74.75 269.3 64 256 64C242.7 64 232 74.75 232 88V292.7C208.5 302.1 192 325.1 192 352C192 387.3 220.7 416 256 416C291.3 416 320 387.3 320 352C320 325.1 303.5 302.1 280 292.7zM144 176C161.7 176 176 161.7 176 144C176 126.3 161.7 112 144 112C126.3 112 112 126.3 112 144C112 161.7 126.3 176 144 176zM96 224C78.33 224 64 238.3 64 256C64 273.7 78.33 288 96 288C113.7 288 128 273.7 128 256C128 238.3 113.7 224 96 224zM416 288C433.7 288 448 273.7 448 256C448 238.3 433.7 224 416 224C398.3 224 384 238.3 384 256C384 273.7 398.3 288 416 288zM368 112C350.3 112 336 126.3 336 144C336 161.7 350.3 176 368 176C385.7 176 400 161.7 400 144C400 126.3 385.7 112 368 112z"/>
        </symbol>
        <symbol id="dashboard-content" viewBox="0 0 576 512">
        <path d="M572.6 270.3l-96 192C471.2 473.2 460.1 480 447.1 480H64c-35.35 0-64-28.66-64-64V96c0-35.34 28.65-64 64-64h117.5c16.97 0 33.25 6.742 45.26 18.75L275.9 96H416c35.35 0 64 28.66 64 64v32h-48V160c0-8.824-7.178-16-16-16H256L192.8 84.69C189.8 81.66 185.8 80 181.5 80H64C55.18 80 48 87.18 48 96v288l71.16-142.3C124.6 230.8 135.7 224 147.8 224h396.2C567.7 224 583.2 249 572.6 270.3z"/>
        </symbol>

        <symbol id="dashboard-arrow-right" viewBox="0 0 256 512">
            <path d="M64 448c-8.188 0-16.38-3.125-22.62-9.375c-12.5-12.5-12.5-32.75 0-45.25L178.8 256L41.38 118.6c-12.5-12.5-12.5-32.75 0-45.25s32.75-12.5 45.25 0l160 160c12.5 12.5 12.5 32.75 0 45.25l-160 160C80.38 444.9 72.19 448 64 448z"/>
        </symbol>

        <symbol id="dashboard-seo" viewBox="0 0 512 512">
            <path d="M160 320h12v16c0 8.875 7.125 16 16 16h40c8.875 0 16-7.125 16-16V320H256c17.62 0 32-14.38 32-32V64c0-17.62-14.38-32-32-32V16C256 7.125 248.9 0 240 0h-64C167.1 0 160 7.125 160 16V32C142.4 32 128 46.38 128 64v224C128 305.6 142.4 320 160 320zM464 448h-1.25C493.2 414 512 369.2 512 320c0-105.9-86.13-192-192-192v64c70.63 0 128 57.38 128 128s-57.38 128-128 128H48C21.5 448 0 469.5 0 496C0 504.9 7.125 512 16 512h480c8.875 0 16-7.125 16-16C512 469.5 490.5 448 464 448zM104 416h208c4.375 0 8-3.625 8-8v-16c0-4.375-3.625-8-8-8h-208C99.63 384 96 387.6 96 392v16C96 412.4 99.63 416 104 416z"/>
        </symbol>


        <symbol id="dashboard-more" viewBox="0 0 576 512">
            <path d="M172.1 40.16L268.1 3.76C280.9-1.089 295.1-1.089 307.9 3.76L403.9 40.16C425.6 48.41 440 69.25 440 92.52V204.7C441.3 205.1 442.6 205.5 443.9 205.1L539.9 242.4C561.6 250.6 576 271.5 576 294.7V413.9C576 436.1 562.9 456.2 542.5 465.1L446.5 507.3C432.2 513.7 415.8 513.7 401.5 507.3L288 457.5L174.5 507.3C160.2 513.7 143.8 513.7 129.5 507.3L33.46 465.1C13.13 456.2 0 436.1 0 413.9V294.7C0 271.5 14.39 250.6 36.15 242.4L132.1 205.1C133.4 205.5 134.7 205.1 136 204.7V92.52C136 69.25 150.4 48.41 172.1 40.16V40.16zM290.8 48.64C289 47.95 286.1 47.95 285.2 48.64L206.8 78.35L287.1 109.5L369.2 78.35L290.8 48.64zM392 210.6V121L309.6 152.6V241.8L392 210.6zM154.8 250.9C153 250.2 150.1 250.2 149.2 250.9L70.81 280.6L152 311.7L233.2 280.6L154.8 250.9zM173.6 455.3L256 419.1V323.2L173.6 354.8V455.3zM342.8 280.6L424 311.7L505.2 280.6L426.8 250.9C425 250.2 422.1 250.2 421.2 250.9L342.8 280.6zM528 413.9V323.2L445.6 354.8V455.3L523.2 421.2C526.1 419.9 528 417.1 528 413.9V413.9z"/>
        </symbol>

        <symbol id="dashboard-users" viewBox="0 0 640 512">
            <path d="M224 256c70.7 0 128-57.31 128-128S294.7 0 224 0C153.3 0 96 57.31 96 128S153.3 256 224 256zM274.7 304H173.3c-95.73 0-173.3 77.6-173.3 173.3C0 496.5 15.52 512 34.66 512H413.3C432.5 512 448 496.5 448 477.3C448 381.6 370.4 304 274.7 304zM479.1 320h-73.85C451.2 357.7 480 414.1 480 477.3C480 490.1 476.2 501.9 470 512h138C625.7 512 640 497.6 640 479.1C640 391.6 568.4 320 479.1 320zM432 256C493.9 256 544 205.9 544 144S493.9 32 432 32c-25.11 0-48.04 8.555-66.72 22.51C376.8 76.63 384 101.4 384 128c0 35.52-11.93 68.14-31.59 94.71C372.7 243.2 400.8 256 432 256z"/>
        </symbol>


        <symbol id="dashboard-exit" viewBox="0 0 576 512">
            <path d="M560 448H512V113.5c0-27.25-21.5-49.5-48-49.5L352 64.01V128h96V512h112c8.875 0 16-7.125 16-15.1v-31.1C576 455.1 568.9 448 560 448zM280.3 1.007l-192 49.75C73.1 54.51 64 67.76 64 82.88V448H16c-8.875 0-16 7.125-16 15.1v31.1C0 504.9 7.125 512 16 512H320V33.13C320 11.63 300.5-4.243 280.3 1.007zM232 288c-13.25 0-24-14.37-24-31.1c0-17.62 10.75-31.1 24-31.1S256 238.4 256 256C256 273.6 245.3 288 232 288z"/>
        </symbol>


    </defs>
</svg>

