<svg height="506pt" viewBox="1 -78 506.99874 506" width="506pt" xmlns="http://www.w3.org/2000/svg" xmlns:xlink="http://www.w3.org/1999/xlink"><linearGradient id="a"><stop offset="0" stop-color="#00efd1"/><stop offset="1" stop-color="#00acea"/></linearGradient><linearGradient id="b" gradientUnits="userSpaceOnUse" x1="253.501737" x2="253.501737" xlink:href="#a" y1="-70.455791" y2="421.922209"/><linearGradient id="c" gradientUnits="userSpaceOnUse" x1="368.977737" x2="368.977737" xlink:href="#a" y1="-70.455791" y2="421.922209"/><path d="m369.464844 75.753906c-6.09375.003906-12.179688.40625-18.21875 1.210938-13.433594-5.929688-27.960938-8.976563-42.640625-8.9375-2.445313 0-4.902344.085937-7.347657.257812-25.742187-50.023437-81.734374-76.679687-136.789062-65.121094-55.054688 11.558594-95.601562 58.480469-99.054688 114.632813-17.652343 5.738281-33.210937 16.589844-44.699218 31.175781-13.277344 16.941406-20.527344 37.828125-20.601563 59.355469l-.1015622 3.175781c0 .160156-.00781255.320313-.0117188.542969-.0859375 19.550781 7.640625 38.328125 21.464844 52.152344 13.824218 13.824219 32.601562 21.554687 52.152344 21.464843h179.199218c25.042969 40.355469 69.152344 64.917969 116.644532 64.957032 75.839843 0 137.539062-61.59375 137.539062-137.433594s-61.699219-137.433594-137.535156-137.433594zm-295.847656 189.910156c-14.242188.089844-27.929688-5.53125-38.003907-15.601562-10.070312-10.070312-15.695312-23.753906-15.613281-37.996094l.101562-3.304687c0-.101563 0-.171875 0-.269531.027344-17.09375 5.769532-33.6875 16.3125-47.144532 10.300782-13.113281 24.761719-22.332031 41-26.140625 4.542969-1.054687 7.757813-5.101562 7.757813-9.765625.011719-49.605468 34.742187-92.425781 83.277344-102.675781 48.53125-10.246094 97.613281 14.878906 117.675781 60.242187 1.808594 4.085938 6.109375 6.476563 10.535156 5.855469 3.953125-.554687 7.941406-.832031 11.929688-.832031 1.300781 0 2.601562.035156 3.890625.09375-49.015625 22.273438-80.511719 71.121094-80.566407 124.960938-.042968 18.058593 3.546876 35.9375 10.554688 52.578124zm295.847656 65.167969c-64.914063 0-117.539063-52.625-117.539063-117.539062 0-64.914063 52.625-117.539063 117.539063-117.539063 64.914062 0 117.535156 52.625 117.535156 117.539063-.070312 64.882812-52.652344 117.464843-117.535156 117.539062zm0 0" fill="url(#b)"/><path d="m375.960938 159.894531c-3.878907-3.761719-10.039063-3.761719-13.917969 0l-38.148438 36.96875c-3.96875 3.847657-4.066406 10.175781-.222656 14.144531 1.796875 1.898438 4.285156 2.996094 6.898437 3.039063 2.617188.039063 5.136719-.976563 6.992188-2.820313l20.9375-20.535156v68.820313c0 5.523437 4.480469 10 10 10 5.523438 0 10-4.476563 10-10v-68.820313l21.441406 20.539063c1.910156 1.8125 4.449219 2.824219 7.082032 2.820312 2.726562.003907 5.339843-1.09375 7.246093-3.042969 3.851563-3.957031 3.769531-10.289062-.191406-14.140624zm0 0" fill="url(#c)"/></svg>