<svg width="120" height="42" viewBox="0 0 120 42" fill="none" xmlns="http://www.w3.org/2000/svg">
<path d="M66.884 29.9823C66.884 30.5556 66.7026 31.0202 66.3399 31.376C65.9772 31.7319 65.5382 31.9592 65.0228 32.0581C64.4501 32.1964 63.801 32.3249 63.0756 32.4435C62.3502 32.5424 61.6057 32.6314 60.8422 32.7104C60.0977 32.7895 59.3627 32.8488 58.6373 32.8883C57.9119 32.9279 57.2533 32.9477 56.6616 32.9477C56.5088 32.9477 56.2893 32.9378 56.003 32.918C55.7357 32.918 55.4494 32.8982 55.1439 32.8587C54.8576 32.8389 54.5808 32.7994 54.3135 32.7401C54.0654 32.6808 53.8745 32.6017 53.7409 32.5029C53.6072 32.3842 53.4832 32.2261 53.3686 32.0284C53.2732 31.8109 53.1873 31.5836 53.1109 31.3464C53.0346 31.0894 52.9773 30.8423 52.9391 30.605C52.9009 30.3678 52.8818 30.1602 52.8818 29.9823C52.8818 29.7056 52.9105 29.4584 52.9677 29.241C53.0441 29.0038 53.1777 28.7863 53.3686 28.5886C53.5977 28.3316 53.8363 28.0845 54.0845 27.8473C54.3326 27.5903 54.5713 27.3432 54.8003 27.1059C55.0676 26.8094 55.4207 26.4239 55.8598 25.9495C56.2989 25.4552 56.7665 24.9116 57.2629 24.3185C57.7783 23.7057 58.2842 23.0731 58.7805 22.4207C59.2959 21.7486 59.7636 21.0962 60.1836 20.4636C60.6035 19.831 60.9376 19.2379 61.1858 18.6844C61.453 18.1308 61.5866 17.6564 61.5866 17.261C61.5866 16.8854 61.4817 16.579 61.2717 16.3418C61.0617 16.0848 60.7753 15.9563 60.4126 15.9563C60.0118 15.9563 59.6395 16.1045 59.2959 16.4011C58.9523 16.6976 58.6087 17.0238 58.2651 17.3796C57.9215 17.7157 57.5492 18.032 57.1483 18.3285C56.7665 18.6251 56.3275 18.7733 55.8312 18.7733C55.2394 18.7733 54.7717 18.5954 54.4281 18.2396C54.1036 17.8837 53.9413 17.4093 53.9413 16.8162C53.9413 15.9464 54.1227 15.1457 54.4854 14.4143C54.8671 13.6631 55.3635 13.0206 55.9743 12.4868C56.5852 11.953 57.2724 11.5379 58.036 11.2414C58.7996 10.9251 59.5822 10.7669 60.384 10.7669C61.2049 10.7669 61.9684 10.8658 62.6747 11.0634C63.3811 11.2611 63.9919 11.5676 64.5073 11.9827C65.0228 12.3978 65.4236 12.9316 65.71 13.584C66.0154 14.2166 66.1681 14.9876 66.1681 15.8969C66.1681 16.6086 66.044 17.3599 65.7959 18.1506C65.5668 18.9216 65.2518 19.7025 64.8509 20.4932C64.4692 21.284 64.0206 22.0747 63.5051 22.8655C63.0088 23.6365 62.4934 24.3778 61.9589 25.0895C61.4244 25.8012 60.8899 26.4634 60.3554 27.0763C59.8209 27.6891 59.3341 28.2229 58.895 28.6776C59.8304 28.559 60.8135 28.4403 61.8444 28.3217C62.8752 28.2031 63.8678 28.1438 64.8223 28.1438C65.3759 28.1438 65.8531 28.302 66.254 28.6183C66.674 28.9148 66.884 29.3695 66.884 29.9823Z" fill="#D3A1DF"/>
<path d="M78.939 21.3235C78.939 21.4224 78.9294 21.5311 78.9104 21.6497C78.8913 21.7486 78.8626 21.8474 78.8245 21.9462C78.6526 22.4009 78.3854 22.7864 78.0227 23.1027C77.66 23.3993 77.2305 23.5475 76.7342 23.5475C75.9897 23.5475 75.4838 23.162 75.2165 22.391C75.1784 22.2922 75.1593 22.1835 75.1593 22.0649C75.1593 21.9265 75.1497 21.7881 75.1306 21.6497V20.7898C75.0925 20.513 75.0256 20.2955 74.9302 20.1374C74.8347 19.9792 74.6725 19.9002 74.4434 19.9002C74.1189 19.9002 73.8039 20.1176 73.4985 20.5525C73.2121 20.9677 72.9544 21.4718 72.7254 22.0649C72.5154 22.6382 72.3436 23.2312 72.2099 23.8441C72.0763 24.4569 72.0095 24.9511 72.0095 25.3267C72.0095 25.6233 72.0286 25.989 72.0668 26.4239C72.105 26.8391 72.1813 27.2443 72.2958 27.6397C72.4104 28.0351 72.5631 28.381 72.754 28.6776C72.964 28.9543 73.2312 29.0927 73.5558 29.0927C73.8803 29.0927 74.1762 28.9939 74.4434 28.7962C74.7298 28.5787 75.0066 28.3316 75.2738 28.0548C75.522 27.8176 75.7892 27.5705 76.0756 27.3135C76.381 27.0565 76.7246 26.928 77.1064 26.928C77.5836 26.928 77.9559 27.1059 78.2231 27.4618C78.5095 27.8176 78.6526 28.2229 78.6526 28.6776C78.6526 29.3497 78.4808 29.9823 78.1372 30.5754C77.7936 31.1487 77.3641 31.6528 76.8487 32.0877C76.3333 32.5029 75.7606 32.829 75.1306 33.0663C74.5007 33.3233 73.8994 33.4518 73.3267 33.4518C72.2958 33.4518 71.4177 33.1849 70.6923 32.6511C69.986 32.1174 69.4133 31.4452 68.9743 30.6347C68.5352 29.8044 68.2202 28.9049 68.0293 27.9362C67.8385 26.9676 67.743 26.0483 67.743 25.1785C67.743 24.1702 67.8766 23.083 68.1439 21.9166C68.4111 20.7305 68.8216 19.6333 69.3752 18.6251C69.9288 17.6168 70.6351 16.7767 71.4941 16.1045C72.3722 15.4324 73.4126 15.0963 74.6152 15.0963C75.3597 15.0963 75.9992 15.2643 76.5337 15.6004C77.0873 15.9365 77.5359 16.3813 77.8795 16.9348C78.2422 17.4686 78.5095 18.0715 78.6813 18.7437C78.8722 19.4158 78.9676 20.0781 78.9676 20.7305C78.9676 20.8293 78.9676 20.9281 78.9676 21.027C78.9676 21.1258 78.9581 21.2247 78.939 21.3235Z" fill="#D3A1DF"/>
<path d="M92.7121 28.5293C92.7121 28.8851 92.693 29.3497 92.6548 29.923C92.6357 30.4963 92.5593 31.0597 92.4257 31.6133C92.2921 32.147 92.0821 32.6116 91.7958 33.007C91.5094 33.4023 91.1085 33.6 90.5931 33.6C89.8868 33.6 89.3428 33.3628 88.961 32.8883C88.5792 32.4139 88.3978 31.8208 88.4169 31.1091C87.8061 31.6627 87.1093 32.0976 86.3266 32.4139C85.563 32.7302 84.7804 32.8883 83.9786 32.8883C83.425 32.8883 82.9001 32.75 82.4037 32.4732C81.9074 32.1964 81.4683 31.8406 81.0866 31.4057C80.7048 30.9708 80.3993 30.4864 80.1703 29.9527C79.9412 29.3991 79.8267 28.8555 79.8267 28.3217C79.8267 27.3728 80.1034 26.5425 80.657 25.8308C81.2297 25.1192 81.9265 24.5162 82.7473 24.022C83.5682 23.508 84.4368 23.1027 85.3531 22.8062C86.2884 22.5097 87.1188 22.312 87.8442 22.2131C87.8442 22.1143 87.8442 22.0253 87.8442 21.9462C87.8633 21.8672 87.8729 21.7782 87.8729 21.6794C87.8729 21.0665 87.7106 20.5723 87.3861 20.1967C87.0616 19.8211 86.6034 19.6333 86.0116 19.6333C85.5344 19.6333 85.124 19.7222 84.7804 19.9002C84.4368 20.0583 84.1122 20.2461 83.8068 20.4636C83.5014 20.6613 83.1959 20.8491 82.8905 21.027C82.5851 21.1851 82.2415 21.2642 81.8597 21.2642C81.4397 21.2642 81.077 21.1258 80.7716 20.8491C80.4852 20.5723 80.3421 20.2165 80.3421 19.7815C80.3421 19.1292 80.5234 18.5361 80.8861 18.0023C81.2679 17.4686 81.7356 17.0238 82.2892 16.6679C82.8619 16.2923 83.4727 16.0057 84.1218 15.808C84.7899 15.5905 85.4008 15.4818 85.9544 15.4818C86.4698 15.4818 86.9852 15.551 87.5006 15.6894C88.016 15.808 88.5028 16.0057 88.961 16.2824C89.4191 16.5394 89.8295 16.8656 90.1922 17.261C90.574 17.6366 90.8795 18.0814 91.1085 18.5954C91.4522 19.3269 91.7289 20.1077 91.9389 20.938C92.1489 21.7486 92.3112 22.5887 92.4257 23.4586C92.5403 24.3086 92.6166 25.1686 92.6548 26.0384C92.693 26.8885 92.7121 27.7188 92.7121 28.5293ZM88.1306 27.5804L88.0447 25.564C88.0065 25.564 87.9683 25.564 87.9301 25.564C87.892 25.5442 87.8538 25.5343 87.8156 25.5343C87.5674 25.5343 87.2525 25.6035 86.8707 25.7419C86.508 25.8605 86.1548 26.0384 85.8112 26.2756C85.4676 26.4931 85.1717 26.7402 84.9235 27.017C84.6945 27.2937 84.5799 27.5804 84.5799 27.8769C84.5799 28.1537 84.6754 28.3415 84.8663 28.4403C85.0572 28.5392 85.2767 28.5886 85.5249 28.5886C85.9448 28.5886 86.3934 28.4799 86.8707 28.2624C87.3479 28.0252 87.7679 27.7978 88.1306 27.5804Z" fill="#D3A1DF"/>
<path d="M107.144 16.7569C107.144 17.3104 107.001 17.8738 106.714 18.4471C106.447 19.0204 106.113 19.5937 105.712 20.167C105.33 20.7206 104.92 21.2543 104.481 21.7683C104.061 22.2625 103.689 22.7172 103.364 23.1324C103.631 23.5673 103.965 24.1505 104.366 24.8819C104.767 25.5936 105.149 26.3547 105.512 27.1652C105.874 27.9758 106.18 28.7665 106.428 29.5375C106.695 30.3085 106.829 30.951 106.829 31.465C106.829 31.8801 106.705 32.2656 106.456 32.6215C106.208 32.9575 105.865 33.1256 105.426 33.1256C105.101 33.1256 104.767 32.9872 104.423 32.7104C104.099 32.4139 103.765 32.0383 103.421 31.5836C103.097 31.1091 102.782 30.5853 102.476 30.012C102.171 29.4387 101.885 28.8753 101.617 28.3217C101.369 27.7682 101.14 27.2542 100.93 26.7797C100.739 26.2855 100.586 25.8901 100.472 25.5936C100.224 25.8506 99.9565 26.0681 99.6702 26.246C99.4029 26.4041 99.1357 26.5919 98.8684 26.8094C98.8684 27.2245 98.8493 27.8077 98.8111 28.559C98.7921 29.3102 98.7062 30.0515 98.5534 30.783C98.4198 31.5144 98.1907 32.1569 97.8662 32.7104C97.5417 33.2442 97.0645 33.5111 96.4345 33.5111C95.9382 33.5111 95.5564 33.2738 95.2891 32.7994C95.0219 32.3447 94.8214 31.8109 94.6878 31.1981C94.5733 30.5655 94.5065 29.9329 94.4874 29.3003C94.4683 28.6479 94.4587 28.1537 94.4587 27.8176C94.4587 26.3547 94.4969 24.8918 94.5733 23.4289C94.6496 21.966 94.6974 20.5031 94.7165 19.0402C94.7165 18.7041 94.7165 18.2692 94.7165 17.7355C94.7355 17.1819 94.7737 16.5889 94.831 15.9563C94.8883 15.3237 94.9742 14.6812 95.0887 14.0288C95.2032 13.3764 95.3655 12.7932 95.5755 12.2792C95.7855 11.7455 96.0527 11.3204 96.3772 11.0041C96.7209 10.6681 97.1313 10.5 97.6085 10.5C97.9521 10.5 98.2385 10.6384 98.4675 10.9152C98.7157 11.1722 98.9066 11.5082 99.0402 11.9234C99.1929 12.3385 99.2979 12.8031 99.3552 13.3171C99.4316 13.8311 99.4793 14.3451 99.4984 14.8591C99.5365 15.3533 99.5556 15.8179 99.5556 16.2528C99.5556 16.6877 99.5556 17.0337 99.5556 17.2907C99.5556 17.4686 99.5461 17.7355 99.527 18.0913C99.527 18.4274 99.5175 18.7832 99.4984 19.1588C99.4984 19.5344 99.4984 19.8804 99.4984 20.1967C99.4984 20.513 99.5175 20.7403 99.5556 20.8787C99.6893 20.8787 99.8897 20.7502 100.157 20.4932C100.424 20.2165 100.73 19.8705 101.073 19.4554C101.436 19.0402 101.818 18.6053 102.219 18.1506C102.639 17.6762 103.059 17.2314 103.479 16.8162C103.918 16.4011 104.347 16.065 104.767 15.808C105.187 15.5312 105.578 15.3928 105.941 15.3928C106.323 15.3928 106.619 15.5312 106.829 15.808C107.039 16.0848 107.144 16.4011 107.144 16.7569Z" fill="#D3A1DF"/>
<path d="M120 27.4321C120 28.1043 119.79 28.7665 119.371 29.4189C118.97 30.0515 118.454 30.6248 117.824 31.1388C117.213 31.633 116.555 32.0383 115.849 32.3546C115.142 32.6511 114.493 32.7994 113.901 32.7994C112.89 32.7994 111.983 32.5424 111.181 32.0284C110.398 31.4946 109.74 30.8225 109.205 30.012C108.671 29.2014 108.26 28.3118 107.974 27.3432C107.707 26.3547 107.573 25.3959 107.573 24.4668C107.573 23.4783 107.707 22.4207 107.974 21.2939C108.241 20.167 108.642 19.1292 109.177 18.1803C109.73 17.2314 110.418 16.4406 111.238 15.808C112.078 15.1754 113.071 14.8591 114.216 14.8591C114.865 14.8591 115.486 14.9777 116.078 15.2149C116.669 15.4324 117.185 15.7487 117.624 16.1638C118.063 16.579 118.416 17.0732 118.683 17.6465C118.951 18.2198 119.084 18.8623 119.084 19.574C119.084 20.5031 118.893 21.3729 118.512 22.1835C118.13 22.994 117.624 23.6958 116.994 24.2889C116.364 24.8819 115.639 25.3663 114.818 25.7419C113.997 26.0977 113.157 26.2954 112.298 26.3349C112.374 26.9082 112.594 27.3234 112.956 27.5804C113.338 27.8374 113.787 27.9659 114.302 27.9659C114.684 27.9659 115.056 27.867 115.419 27.6694C115.782 27.4717 116.135 27.2542 116.478 27.017C116.822 26.76 117.156 26.5326 117.481 26.3349C117.824 26.1373 118.168 26.0384 118.512 26.0384C118.893 26.0384 119.237 26.1669 119.542 26.4239C119.848 26.6809 120 27.017 120 27.4321ZM115.362 20.167C115.362 19.91 115.295 19.6432 115.161 19.3664C115.028 19.0896 114.818 18.9513 114.531 18.9513C114.111 18.9513 113.758 19.0699 113.472 19.3071C113.186 19.5245 112.947 19.8112 112.756 20.167C112.565 20.5031 112.412 20.8688 112.298 21.2642C112.202 21.6596 112.145 22.0253 112.126 22.3614C112.393 22.3021 112.708 22.223 113.071 22.1242C113.453 22.0253 113.806 21.8968 114.13 21.7387C114.474 21.5607 114.76 21.3433 114.989 21.0863C115.238 20.8293 115.362 20.5229 115.362 20.167Z" fill="#D3A1DF"/>
<path fill-rule="evenodd" clip-rule="evenodd" d="M15.0393 0.166217C14.6745 0.395726 14.4645 0.788304 14.4642 1.24133C14.4637 1.78911 14.7052 2.10884 15.4183 2.50437C16.1388 2.90417 16.8033 3.57055 17.1371 4.22799C17.5594 5.06007 17.5694 5.01954 16.8682 5.31755C15.3311 5.97088 14.1657 7.38797 13.7834 9.06877C13.6056 9.85081 13.6605 11.1644 13.9016 11.8964C14.1583 12.6756 14.6364 13.46 15.2122 14.0464C15.8103 14.6555 16.3796 15.0258 17.179 15.3256C17.7025 15.522 17.8715 15.5443 18.8348 15.5443C19.7982 15.5443 19.9671 15.522 20.4906 15.3256C21.3053 15.02 21.867 14.6509 22.4801 14.0182C23.093 13.3855 23.4506 12.8057 23.7468 11.9649C23.937 11.4246 23.9586 11.2502 23.9586 10.2559C23.9586 9.26153 23.937 9.08714 23.7468 8.54684C23.187 6.95717 22.0166 5.74548 20.5192 5.20542L19.9933 5.01569L19.787 4.33422C19.2411 2.5307 18.1964 1.21336 16.6287 0.351186C15.898 -0.0505783 15.464 -0.101106 15.0393 0.166217ZM32.4245 3.88857C32.1404 3.99233 30.4922 4.58489 28.762 5.20525C27.0317 5.8257 25.5752 6.35936 25.5253 6.39119C25.4618 6.43171 25.5165 6.64547 25.7072 7.10162C26.4085 8.77913 26.5377 10.4248 26.1064 12.1835C25.7586 13.6017 25.0721 14.808 24.0254 15.84C22.5656 17.2796 20.8758 17.9868 18.8746 17.9959C17.3066 18.0031 15.9572 17.5939 14.7141 16.7345C13.089 15.6111 11.8772 13.8163 11.5136 11.9944C11.4164 11.5076 11.399 11.4801 11.2186 11.5268C10.7425 11.6501 0.72979 15.2841 0.525548 15.4078C-0.115314 15.7955 -0.172931 16.8052 0.413572 17.3704C0.542078 17.4943 3.94069 18.7528 10.8799 21.2461C16.5317 23.2769 21.1688 24.9385 21.1844 24.9385C21.2001 24.9385 21.2232 26.6088 21.2358 28.6502C21.2585 32.3235 21.2606 32.3655 21.4381 32.7083C22.2211 34.2209 24.152 34.5378 25.3089 33.3438C25.9298 32.703 25.9426 32.6298 25.9873 29.4831L26.027 26.6864L29.4046 27.9124C31.7561 28.7659 32.8935 29.1407 33.1488 29.1459C33.5832 29.1549 33.9616 28.9286 35.129 27.9619C37.8923 25.6737 39.7986 22.5094 40.4674 19.1006C40.6217 18.3144 40.6491 17.9251 40.6461 16.5719C40.6429 15.1487 40.6184 14.8547 40.4238 13.906C39.8446 11.0801 38.6898 8.61984 37.0161 6.64555C35.8431 5.26177 33.78 3.68768 33.1515 3.69679C33.0358 3.69851 32.7086 3.7848 32.4245 3.88857ZM33.3845 10.1143C33.5494 10.229 33.712 10.4487 33.807 10.6853C33.9431 11.0244 33.9495 11.1111 33.8608 11.4167C33.5195 12.5924 31.9653 12.5924 31.624 11.4167C31.5353 11.1111 31.5417 11.0244 31.6778 10.6853C31.9686 9.96121 32.7759 9.69102 33.3845 10.1143ZM28.6162 15.0358C28.7811 15.1506 28.9437 15.3703 29.0387 15.6069C29.1748 15.9459 29.1812 16.0326 29.0925 16.3383C28.7512 17.5139 27.197 17.5139 26.8557 16.3383C26.767 16.0326 26.7734 15.9459 26.9095 15.6069C27.2003 14.8828 28.0076 14.6126 28.6162 15.0358ZM34.9739 15.8561C35.1389 15.9709 35.3014 16.1905 35.3965 16.4272C35.5326 16.7662 35.5389 16.8529 35.4503 17.1585C35.1089 18.3342 33.5548 18.3342 33.2134 17.1585C33.1247 16.8529 33.1311 16.7662 33.2672 16.4272C33.558 15.703 34.3654 15.4329 34.9739 15.8561ZM0 21.8434V23.7519L9.34669 27.1136C14.4874 28.9625 18.7259 30.4879 18.7655 30.5031C18.8079 30.5195 18.829 29.7288 18.8164 28.5892L18.7951 26.6474L9.45866 23.2912C4.32359 21.4453 0.0947305 19.9349 0.0611139 19.9349C0.0274973 19.9349 0 20.7938 0 21.8434ZM31.0003 20.7777C31.1653 20.8924 31.3278 21.1121 31.4229 21.3488C31.559 21.6878 31.5654 21.7745 31.4767 22.0801C31.1353 23.2558 29.5812 23.2558 29.2398 22.0801C29.1512 21.7745 29.1575 21.6878 29.2936 21.3488C29.5844 20.6246 30.3918 20.3544 31.0003 20.7777ZM40.2922 25.7042C39.46 27.0086 38.2491 28.4081 36.9952 29.5145C36.06 30.3397 34.9865 31.1171 34.5804 31.2633L34.3318 31.3527V36.6763C34.3318 40.2997 34.3582 42 34.4143 42C34.5761 42 35.9586 41.4159 36.393 41.164C38.7233 39.813 40.1667 37.5867 40.5694 34.7225C40.6723 33.9904 40.6898 33.091 40.6717 29.491L40.6499 25.1436L40.2922 25.7042ZM0 28.1007C0 29.9841 0.0230468 30.1183 0.411187 30.4923C0.537468 30.614 5.72039 32.5143 16.2395 36.2957C24.8419 39.388 31.896 41.918 31.9153 41.918C31.9346 41.918 31.9409 40.9859 31.9292 39.8468L31.908 37.7757L29.0652 36.7594L26.2226 35.7432L25.6877 35.9924C24.7653 36.4221 24.5759 36.4636 23.5634 36.4575C22.7421 36.4526 22.5354 36.4227 22.0739 36.2423C20.844 35.7616 19.8692 34.8732 19.3505 33.7599C19.1919 33.4196 19.0504 33.1412 19.0361 33.1412C19.0104 33.1412 15.201 31.775 5.21844 28.1856C2.38447 27.1667 0.0509415 26.333 0.0329014 26.333C0.0147818 26.333 0 27.1284 0 28.1007ZM28.3708 30.9382C28.3702 31.9149 28.2707 32.6462 28.0508 33.2921C27.966 33.541 27.9072 33.7556 27.9201 33.769C27.9582 33.8083 31.8109 35.1918 31.8824 35.1918C31.9183 35.1918 31.9477 34.3334 31.9477 33.2843V31.3768L30.2589 30.7704C29.3301 30.4369 28.5255 30.1471 28.4708 30.1264C28.3954 30.0977 28.3713 30.2933 28.3708 30.9382Z" fill="#D3A1DF"/>
</svg>
