<svg version="1.1" xmlns="http://www.w3.org/2000/svg" xmlns:xlink="http://www.w3.org/1999/xlink">
    <defs>
        <symbol id="icon-arrow" viewBox="0 0 13 12">
            <path d="M6.53125 2.71875L5.95293 3.29707L8.2416 5.58984L3.25 5.58984L3.25
            6.41016L8.2416 6.41016L5.95293 8.70293L6.53125 9.28125L9.8125 6L6.53125 2.71875Z"/>
        </symbol>
        <symbol id="icon-close" viewBox="0 0 32 32">
            <title>close</title>
            <path xmlns="http://www.w3.org/2000/svg"
                  d="M24.4 7.613c-0.52-0.52-1.36-0.52-1.88 0l-6.52 6.507-6.52-6.52c-0.52-0.52-1.36-0.52-1.88 0s-0.52 1.36 0 1.88l6.52 6.52-6.52 6.52c-0.52 0.52-0.52 1.36 0 1.88s1.36 0.52 1.88 0l6.52-6.52 6.52 6.52c0.52 0.52 1.36 0.52 1.88 0s0.52-1.36 0-1.88l-6.52-6.52 6.52-6.52c0.507-0.507 0.507-1.36 0-1.867z"/>
        </symbol>
        <symbol id="icon-user" viewBox="0 0 512 512">
            <title>close</title>
            <path xmlns="http://www.w3.org/2000/svg"
                  d="M437.02,330.98c-27.883-27.882-61.071-48.523-97.281-61.018C378.521,243.251,404,198.548,404,148
			C404,66.393,337.607,0,256,0S108,66.393,108,148c0,50.548,25.479,95.251,64.262,121.962
			c-36.21,12.495-69.398,33.136-97.281,61.018C26.629,379.333,0,443.62,0,512h40c0-119.103,96.897-216,216-216s216,96.897,216,216
			h40C512,443.62,485.371,379.333,437.02,330.98z M256,256c-59.551,0-108-48.448-108-108S196.449,40,256,40
			c59.551,0,108,48.448,108,108S315.551,256,256,256z"/>

        </symbol>
        <symbol id="icon-msg" viewBox="0 0 512 512">
            <g>
                <g>
                    <path d="M452,68H60C26.916,68,0,94.916,0,128v256c0,33.084,26.916,60,60,60h392c33.084,0,60-26.916,60-60V128
			C512,94.916,485.084,68,452,68z M472,384c0,11.028-8.972,20-20,20H60c-11.028,0-20-8.972-20-20V128c0-11.028,8.972-20,20-20h392
			c11.028,0,20,8.972,20,20V384z"/>
                </g>
            </g>
            <g>
                <g>
                    <polygon
                            points="468.604,92.937 256,251.074 43.396,92.937 19.522,125.032 256,300.926 492.478,125.032 		"/>
                </g>
            </g>
        </symbol>

        <symbol id="icon-edit" viewBox="0 0 512 512">
            <path xmlns="http://www.w3.org/2000/svg"
                  d="M498.125,92.38l-78.505-78.506c-18.496-18.497-48.436-18.5-66.935,0C339.518,27.043,50.046,316.516,44.525,322.035    c-2.182,2.182-3.725,4.918-4.46,7.915L0.502,491.068c-3.036,12.368,8.186,23.44,20.431,20.432    c8.361-2.053,153.718-37.747,161.117-39.564c2.996-0.735,5.734-2.278,7.915-4.46c5.816-5.816,293.677-293.677,308.161-308.161    C516.622,140.818,516.627,110.879,498.125,92.38z M39.957,472.043l1.612-6.562l4.951,4.951L39.957,472.043z M84.874,461.014    l-33.887-33.887l14.736-60.009l79.16,79.16L84.874,461.014z M178.022,431.647l-97.668-97.668L332.559,81.773l97.668,97.668    L178.022,431.647z M474.24,135.429l-19.508,19.507l-97.667-97.668l19.507-19.507c5.294-5.293,13.867-5.298,19.163,0l78.506,78.507    C479.536,121.563,479.536,130.132,474.24,135.429z"/>
        </symbol>
        <symbol id="icon-personal-data" viewBox="0 0 28 28">
            <path d="M10.41 5c1.333 0 1.333 2 0 2l-.558.005c-1.479.028-2.141.18-2.823.545-.64.342-1.137.839-1.48 1.48-.364.68-.516 1.343-.544 2.822L5 12.41v5.18c0 1.881.142 2.62.55 3.38.342.641.839 1.138 1.48 1.48.68.365 1.343.517 2.822.545l.558.005h7.18c1.881 0 2.62-.142 3.38-.55a3.543 3.543 0 001.48-1.48c.365-.68.517-1.343.545-2.822L23 17.59v-5.18l-.005-.558c-.028-1.479-.18-2.141-.545-2.823a3.543 3.543 0 00-1.48-1.48c-.68-.364-1.343-.516-2.822-.544L17.59 7l-.133-.007c-1.156-.124-1.156-1.862 0-1.986L17.59 5H18l.071.003.172.004c1.649.038 2.581.232 3.499.69l.172.089a5.543 5.543 0 012.3 2.3c.553 1.034.764 2.03.784 3.988l.002.336v5.18c0 2.183-.203 3.233-.786 4.324a5.543 5.543 0 01-2.3 2.3c-1.034.553-2.03.764-3.988.784L10.41 25c-2.183 0-3.233-.203-4.324-.786a5.543 5.543 0 01-2.3-2.3c-.553-1.034-.764-2.03-.784-3.988L3 12.41c0-2.183.203-3.233.786-4.324a5.543 5.543 0 012.3-2.3c.976-.522 1.92-.74 3.67-.78l.172-.003L10 5h.41zM15 17a1 1 0 010 2H9a1 1 0 010-2h6zm4-5a1 1 0 010 2H9a1 1 0 010-2h10zm-5-9a1 1 0 011 1v4a1 1 0 01-2 0V4a1 1 0 011-1z">
            </path>
        </symbol>
        <symbol id="icon-personal-shield" viewBox="0 0 28 28">
            <path d="M13.484 1.502c.35-.05.682-.05 1.032 0 .345.05.633.127 1.296.348l6.82 2.273A2 2 0 0124 6.021V15.3c0 4.794-2.878 8.467-8.458 10.942l-.368.16a3 3 0 01-2.348 0C7.007 23.93 4 20.202 4 15.3V6.02a2 2 0 011.368-1.897l7.008-2.335c.533-.174.797-.242 1.108-.286zm.75 1.98a1.58 1.58 0 00-.467 0c-.2.029-.389.08-.947.265L6 6.021V15.3c0 4.016 2.471 7.078 7.609 9.262.25.106.532.106.775.003l.354-.154C19.641 22.236 22 19.226 22 15.3V6.02l-6.977-2.324a5.973 5.973 0 00-.668-.193zm5.173 7.01a1 1 0 01.083 1.32l-.083.095-6 6a1 1 0 01-1.32.083l-.094-.083-3.25-3.25a1 1 0 011.32-1.497l.094.083 2.543 2.542 5.293-5.292a1 1 0 011.414 0z">
            </path>
        </symbol>
        <symbol id="social-vk" viewBox="0 0 112.196 112.196">
            <path style="fill-rule:evenodd;clip-rule:evenodd;fill:#4D76A1;" d="M53.979,80.702h4.403c0,0,1.33-0.146,2.009-0.878
		c0.625-0.672,0.605-1.934,0.605-1.934s-0.086-5.908,2.656-6.778c2.703-0.857,6.174,5.71,9.853,8.235
		c2.782,1.911,4.896,1.492,4.896,1.492l9.837-0.137c0,0,5.146-0.317,2.706-4.363c-0.2-0.331-1.421-2.993-7.314-8.463
		c-6.168-5.725-5.342-4.799,2.088-14.702c4.525-6.031,6.334-9.713,5.769-11.29c-0.539-1.502-3.867-1.105-3.867-1.105l-11.076,0.069
		c0,0-0.821-0.112-1.43,0.252c-0.595,0.357-0.978,1.189-0.978,1.189s-1.753,4.667-4.091,8.636c-4.932,8.375-6.904,8.817-7.71,8.297
		c-1.875-1.212-1.407-4.869-1.407-7.467c0-8.116,1.231-11.5-2.397-12.376c-1.204-0.291-2.09-0.483-5.169-0.514
		c-3.952-0.041-7.297,0.012-9.191,0.94c-1.26,0.617-2.232,1.992-1.64,2.071c0.732,0.098,2.39,0.447,3.269,1.644
		c1.135,1.544,1.095,5.012,1.095,5.012s0.652,9.554-1.523,10.741c-1.493,0.814-3.541-0.848-7.938-8.446
		c-2.253-3.892-3.954-8.194-3.954-8.194s-0.328-0.804-0.913-1.234c-0.71-0.521-1.702-0.687-1.702-0.687l-10.525,0.069
		c0,0-1.58,0.044-2.16,0.731c-0.516,0.611-0.041,1.875-0.041,1.875s8.24,19.278,17.57,28.993
		C44.264,81.287,53.979,80.702,53.979,80.702L53.979,80.702z"/>
        </symbol>
        <symbol id="social-fb" viewBox="0 0 112.196 112.196">
            <path style="fill:#3B5998;" d="M70.201,58.294h-10.01v36.672H45.025V58.294h-7.213V45.406h7.213v-8.34
		c0-5.964,2.833-15.303,15.301-15.303L71.56,21.81v12.51h-8.151c-1.337,0-3.217,0.668-3.217,3.513v7.585h11.334L70.201,58.294z"/>
        </symbol>
        <symbol id="social-google" viewBox="0 0 512 512">
            <path style="fill:#FBBB00;" d="M113.47,309.408L95.648,375.94l-65.139,1.378C11.042,341.211,0,299.9,0,256
	c0-42.451,10.324-82.483,28.624-117.732h0.014l57.992,10.632l25.404,57.644c-5.317,15.501-8.215,32.141-8.215,49.456
	C103.821,274.792,107.225,292.797,113.47,309.408z"/>
            <path style="fill:#518EF8;" d="M507.527,208.176C510.467,223.662,512,239.655,512,256c0,18.328-1.927,36.206-5.598,53.451
	c-12.462,58.683-45.025,109.925-90.134,146.187l-0.014-0.014l-73.044-3.727l-10.338-64.535
	c29.932-17.554,53.324-45.025,65.646-77.911h-136.89V208.176h138.887L507.527,208.176L507.527,208.176z"/>
            <path style="fill:#28B446;" d="M416.253,455.624l0.014,0.014C372.396,490.901,316.666,512,256,512
	c-97.491,0-182.252-54.491-225.491-134.681l82.961-67.91c21.619,57.698,77.278,98.771,142.53,98.771
	c28.047,0,54.323-7.582,76.87-20.818L416.253,455.624z"/>
            <path style="fill:#F14336;" d="M419.404,58.936l-82.933,67.896c-23.335-14.586-50.919-23.012-80.471-23.012
	c-66.729,0-123.429,42.957-143.965,102.724l-83.397-68.276h-0.014C71.23,56.123,157.06,0,256,0
	C318.115,0,375.068,22.126,419.404,58.936z"/>
        </symbol>
        <symbol id="del" viewBox="0 0 12 12">

        </symbol>

        <symbol id="icon-menu" viewBox="0 0 512 512">
            <circle cx="256" cy="256" r="64"/>
            <circle cx="256" cy="448" r="64"/>
            <circle cx="256" cy="64" r="64"/>
        </symbol>

        <symbol id="icon-profile" viewBox="0 0 30 30">
            <path d="M11.3869 18.8188L11.8666 18.8209C18.8335 18.8846 22.7753 20.361 22.7753 24.3936C22.7753 28.3409 18.9974 29.8636 12.3351 29.9911L11.3869 30C4.12014 30 0 28.5506 0 24.4251C0 20.2942 4.13653 18.8188 11.3869 18.8188ZM11.3869 21.1797C5.36066 21.1797 2.25008 22.2892 2.25008 24.4251C2.25008 26.5475 5.3532 27.6391 11.3869 27.6391C17.4136 27.6391 20.5252 26.5294 20.5252 24.3936C20.5252 22.2724 17.4193 21.1797 11.3869 21.1797ZM23.3809 17.7041C24.2517 17.7663 25.1175 17.8973 25.9496 18.0908C27.7318 18.4628 29.0567 19.1572 29.6638 20.4937C30.1121 21.4832 30.1121 22.6345 29.6639 23.6239C29.0602 24.9571 27.749 25.6465 25.9568 26.0332C25.3482 26.1646 24.7533 25.7534 24.6281 25.1148C24.5029 24.4762 24.8948 23.8521 25.5034 23.7207C26.6567 23.4718 27.4243 23.0683 27.6316 22.6106C27.7894 22.2623 27.7894 21.8554 27.6321 21.5083C27.4235 21.0489 26.6519 20.6446 25.4869 20.4011C24.7408 20.2278 23.9865 20.1137 23.2282 20.0596C22.6083 20.0154 22.1399 19.4522 22.1821 18.8018C22.2242 18.1513 22.7609 17.6599 23.3809 17.7041ZM11.3869 0C15.6591 0 19.0897 3.59897 19.0897 8.08058C19.0897 12.5635 15.6594 16.1627 11.3869 16.1627C7.11464 16.1627 3.68563 12.5637 3.68563 8.08058C3.68563 3.59875 7.11491 0 11.3869 0ZM21.0303 1.68348C24.3828 1.68348 27.101 4.5362 27.101 8.0532C27.101 11.5713 24.3832 14.4229 21.0303 14.4229C20.4089 14.4229 19.9052 13.8944 19.9052 13.2425C19.9052 12.5905 20.4089 12.062 21.0303 12.062C23.1405 12.062 24.8509 10.2674 24.8509 8.0532C24.8509 5.83998 23.14 4.04438 21.0303 4.04438C20.4089 4.04438 19.9052 3.51588 19.9052 2.86393C19.9052 2.21199 20.4089 1.68348 21.0303 1.68348ZM11.3869 2.3609C8.35767 2.3609 5.93571 4.90256 5.93571 8.08058C5.93571 11.26 8.35748 13.8018 11.3869 13.8018C14.4167 13.8018 16.8396 11.2596 16.8396 8.08058C16.8396 4.90294 14.4165 2.3609 11.3869 2.3609Z"/>
        </symbol>
        <symbol id="icon-pass" viewBox="0 0 30 30">
            <path d="M13.9153 0.152535C14.6183 -0.0509264 15.3847 -0.0509263 16.0864 0.153024L27.8072 3.55465C29.1212 3.9346 30 4.95817 30 6.10796V16.0705C30 19.1013 28.674 22.0206 26.2843 24.2946C25.1569 25.369 23.7203 26.2642 21.9825 27.0403L15.6456 29.8674C15.2496 30.0441 14.7725 30.0442 14.3764 29.8677L8.02819 27.0389C6.28575 26.2616 4.84933 25.3681 3.72198 24.2941C1.32865 22.0184 0 19.0972 0 16.0646V6.10796C0 4.95817 0.878762 3.9346 2.19131 3.55508L13.9153 0.152535ZM15.1995 2.23427C15.0713 2.19699 14.9293 2.19699 14.7999 2.23444L3.07558 5.63708C2.83323 5.70715 2.67157 5.89545 2.67157 6.10796V16.0646C2.67157 18.5642 3.7667 20.9719 5.73981 22.848C6.63608 23.7019 7.81994 24.4383 9.29733 25.0974L15.0089 27.6424L20.7122 25.0993C22.0009 24.5238 23.0687 23.8868 23.9163 23.1641L24.266 22.849C26.2355 20.9748 27.3284 18.5687 27.3284 16.0705V6.10796C27.3284 5.89545 27.1668 5.70715 26.923 5.63666L15.1995 2.23427ZM21.627 10.8599C22.1012 11.2515 22.1443 11.8644 21.7563 12.2963L21.627 12.42L14.6845 18.1536C14.2101 18.5453 13.4679 18.5809 12.9449 18.2603L12.7951 18.1534L9.42537 15.369C8.90385 14.938 8.90407 14.2395 9.42587 13.8088C9.90023 13.4173 10.6423 13.3818 11.1652 13.7024L11.315 13.8092L13.739 15.8133L19.7379 10.8599C20.2596 10.429 21.1053 10.429 21.627 10.8599Z"/>
        </symbol>
        <symbol id="icon-ads" viewBox="0 0 30 30">
            <path d="M19.3074 0C19.3831 0 19.4574 0.00547983 19.5296 0.0160029L19.7695 0.0176695C20.1288 0.0176695 20.4726 0.143437 20.7214 0.365924L29.6324 8.33383C29.8683 8.54476 30 8.82583 30 9.11823V22.9609C30 26.735 26.4361 30 22.12 30H8.06474C3.52674 30 0 26.8883 0 22.9609V6.78193C0 3.06503 3.68878 0.0176695 8.06474 0.0176695L19.0855 0.0159391C19.1576 0.00545767 19.2318 0 19.3074 0ZM17.9873 2.28043L8.06474 2.28299C5.12409 2.28299 2.63899 4.33598 2.63899 6.78193V22.9609C2.63899 25.6509 5.00068 27.7347 8.06474 27.7347H22.12C24.9389 27.7347 27.361 25.5157 27.361 22.9609L27.3593 10.5458L25.8196 10.5505C25.2326 10.5499 24.5649 10.5488 23.8225 10.5473C20.7093 10.5417 18.1686 8.44707 17.9971 5.81039L17.9879 5.52588L17.9873 2.28043ZM18.9731 19.3423C19.7018 19.3423 20.2926 19.8494 20.2926 20.4749C20.2926 21.0483 19.7962 21.5222 19.1521 21.5972L18.9731 21.6076H9.47801C8.74927 21.6076 8.15851 21.1005 8.15851 20.4749C8.15851 19.9015 8.65491 19.4276 9.29896 19.3526L9.47801 19.3423H18.9731ZM15.3814 11.8634C16.1102 11.8634 16.7009 12.3705 16.7009 12.996C16.7009 13.5694 16.2045 14.0433 15.5605 14.1183L15.3814 14.1287H9.47713C8.74839 14.1287 8.15763 13.6216 8.15763 12.996C8.15763 12.4226 8.65404 11.9487 9.29808 11.8737L9.47713 11.8634H15.3814ZM20.6263 3.55203L20.6268 5.52588C20.6268 7.04585 22.0593 8.27882 23.8283 8.28203L25.9166 8.28203L20.6263 3.55203Z"/>
        </symbol>
        <symbol id="icon-questions" viewBox="0 0 30 30">
            <path d="M15.0869 0.000119374C21.3172 0.04615 26.873 3.92704 29.0513 9.75581C31.2299 15.5852 29.578 22.1521 24.8996 26.2618C20.2218 30.3709 13.4894 31.1705 7.97683 28.272L7.90811 28.2479C7.89739 28.2417 7.89567 28.2363 7.89336 28.2292L6.86957 27.6498C6.66105 27.5645 6.42998 27.5506 6.28891 27.5863C5.22466 27.9689 4.13697 28.2832 3.03251 28.5271L2.83006 28.5514C1.61423 28.5784 1.00163 27.7895 1.00163 26.6414L1.03095 26.3954C1.30704 25.2536 1.65306 24.1297 2.04688 23.089C2.10796 22.892 2.08762 22.6788 1.98221 22.4813L1.70648 21.9437C-0.730676 17.284 -0.546883 11.6904 2.19089 7.20015C4.92831 2.71051 9.81953 -0.0208058 15.0869 0.000119374ZM15.0725 2.09195L14.6512 2.09854C10.2824 2.22354 6.26007 4.54681 3.97794 8.28973C1.62251 12.1529 1.4644 16.9648 3.56494 20.981L3.83632 21.5103C4.19727 22.1858 4.27279 22.9774 4.02583 23.7676C3.64206 24.787 3.32129 25.8288 3.06534 26.8873L3.207 26.3355L3.79909 26.1812C4.00234 26.1252 4.20608 26.0662 4.41089 26.0041L5.02908 25.8083L5.657 25.5926C6.32031 25.4099 7.02555 25.4522 7.72028 25.7385C7.86612 25.8088 8.04706 25.9064 8.27516 26.0354L8.90864 26.3989C8.91937 26.4018 8.92876 26.4043 8.93594 26.4063L8.91744 26.4039L9.34904 26.6202C13.8873 28.8114 19.294 28.167 23.188 24.9699L23.5183 24.6894C27.5439 21.1531 28.965 15.5036 27.0907 10.4885C25.2163 5.47292 20.4346 2.13273 15.0725 2.09195ZM8.42394 13.2894C9.36909 13.2894 10.136 14.055 10.136 15.0003C10.136 15.9456 9.36909 16.7113 8.42394 16.7113C7.47879 16.7113 6.7119 15.9456 6.7119 15.0003C6.7119 14.055 7.47879 13.2894 8.42394 13.2894ZM15.0793 13.2894C16.0244 13.2894 16.7913 14.055 16.7913 15.0003C16.7913 15.9456 16.0244 16.7113 15.0793 16.7113C14.1341 16.7113 13.3672 15.9456 13.3672 15.0003C13.3672 14.055 14.1341 13.2894 15.0793 13.2894ZM21.7346 13.2894C22.6797 13.2894 23.4466 14.055 23.4466 15.0003C23.4466 15.9456 22.6797 16.7113 21.7346 16.7113C20.7894 16.7113 20.0225 15.9456 20.0225 15.0003C20.0225 14.055 20.7894 13.2894 21.7346 13.2894Z"/>
        </symbol>
        <symbol id="icon-favorites" viewBox="0 0 30 30">
            <path d="M15.0005 0C15.86 0.00473684 16.6431 0.516315 17.0256 1.32631L20.4172 8.49473C20.4322 8.51051 20.4472 8.5263 20.4607 8.5263L28.054 9.67893C28.648 9.76735 29.1865 10.0958 29.554 10.5947C30.2305 11.5484 30.127 12.8795 29.314 13.7052L23.8088 19.3105C23.8088 19.3105 23.7983 19.3216 23.7983 19.3263C23.7983 19.331 23.7983 19.3263 23.8088 19.3421L25.1289 27.2526C25.3089 28.5394 24.4748 29.7426 23.2538 29.9526C23.1368 29.97 23.0168 29.981 22.8983 29.981C22.5263 29.9826 22.1588 29.8863 21.8302 29.7L15.0485 25.9736C15.0275 25.9721 15.0065 25.9784 14.9885 25.9894L8.16028 29.7473C7.84527 29.9147 7.49426 30.0015 7.14024 30C6.30022 30.0015 5.52769 29.5152 5.13168 28.7368C4.89617 28.2789 4.81066 27.7515 4.89017 27.2368L6.22671 19.3579C6.22671 19.3405 6.22221 19.3231 6.21021 19.3105L0.660023 13.6895C0.238508 13.2568 0.00150005 12.6631 0 12.0426C0 11.3889 0.249009 10.7621 0.691524 10.3058C1.04104 9.9742 1.47305 9.7563 1.93657 9.6742L9.51183 8.52157C9.54183 8.52157 9.57333 8.50736 9.57333 8.4742L12.9604 1.32631C13.2275 0.759473 13.697 0.33 14.2655 0.126316C14.5025 0.0410526 14.7515 0 15.0005 0ZM15.0005 2.30526H14.972L14.957 2.31631C14.9435 2.32421 14.9345 2.33684 14.927 2.35105L11.5354 9.50367C11.2084 10.2063 10.5769 10.6942 9.84184 10.8142L2.29658 11.9526L2.20508 11.9842C2.19307 12.0047 2.19007 12.0252 2.19157 12.0489L7.74176 17.6542C8.26978 18.2005 8.50979 18.9852 8.38679 19.7542L7.06674 27.6173V27.6489C7.07424 27.6805 7.10124 27.7026 7.13274 27.7026H7.15674L13.9505 23.9526C14.2835 23.7663 14.6555 23.6668 15.032 23.6668C15.398 23.6652 15.758 23.76 16.082 23.9368L22.8323 27.6473H22.8458C22.8593 27.6552 22.8743 27.6615 22.8893 27.6631C22.8953 27.6663 22.9013 27.6663 22.9073 27.6631H22.9388L22.9688 27.6331L21.6472 19.7684C21.5017 18.9931 21.7462 18.1942 22.2938 17.6542L27.799 12.0347L27.8139 12L27.799 11.9858H27.7779C27.7659 11.9795 27.7524 11.9763 27.7389 11.9763L20.1457 10.8142C19.4107 10.6958 18.7776 10.2063 18.4521 9.50367L15.062 2.36842C15.0635 2.35421 15.059 2.34158 15.05 2.3321C15.0395 2.32263 15.0275 2.31947 15.014 2.31947L15.0005 2.30526Z"/>
        </symbol>
        <symbol id="icon-add" viewBox="0 0 512 512">
            <path d="M256,0C114.833,0,0,114.833,0,256s114.833,256,256,256s256-114.853,256-256S397.167,0,256,0z M256,472.341 c-119.275,0-216.341-97.046-216.341-216.341S136.725,39.659,256,39.659S472.341,136.705,472.341,256S375.295,472.341,256,472.341z"
                  style=""/>
            <path d="M355.148,234.386H275.83v-79.318c0-10.946-8.864-19.83-19.83-19.83s-19.83,8.884-19.83,19.83v79.318h-79.318 c-10.966,0-19.83,8.884-19.83,19.83s8.864,19.83,19.83,19.83h79.318v79.318c0,10.946,8.864,19.83,19.83,19.83    s19.83-8.884,19.83-19.83v-79.318h79.318c10.966,0,19.83-8.884,19.83-19.83S366.114,234.386,355.148,234.386z"/>
        </symbol>
    </defs>
</svg>
