<svg version="1.1" xmlns="http://www.w3.org/2000/svg" xmlns:xlink="http://www.w3.org/1999/xlink">
    <defs>
        <symbol id="icon-close" viewBox="0 0 32 32">
            <title>close</title>
            <path xmlns="http://www.w3.org/2000/svg"
                  d="M24.4 7.613c-0.52-0.52-1.36-0.52-1.88 0l-6.52 6.507-6.52-6.52c-0.52-0.52-1.36-0.52-1.88 0s-0.52 1.36 0 1.88l6.52 6.52-6.52 6.52c-0.52 0.52-0.52 1.36 0 1.88s1.36 0.52 1.88 0l6.52-6.52 6.52 6.52c0.52 0.52 1.36 0.52 1.88 0s0.52-1.36 0-1.88l-6.52-6.52 6.52-6.52c0.507-0.507 0.507-1.36 0-1.867z"/>
        </symbol>
        <symbol id="icon-user" viewBox="0 0 512 512">
            <title>close</title>
            <path xmlns="http://www.w3.org/2000/svg"
                  d="M437.02,330.98c-27.883-27.882-61.071-48.523-97.281-61.018C378.521,243.251,404,198.548,404,148
			C404,66.393,337.607,0,256,0S108,66.393,108,148c0,50.548,25.479,95.251,64.262,121.962
			c-36.21,12.495-69.398,33.136-97.281,61.018C26.629,379.333,0,443.62,0,512h40c0-119.103,96.897-216,216-216s216,96.897,216,216
			h40C512,443.62,485.371,379.333,437.02,330.98z M256,256c-59.551,0-108-48.448-108-108S196.449,40,256,40
			c59.551,0,108,48.448,108,108S315.551,256,256,256z"/>

        </symbol>
        <symbol id="icon-msg" viewBox="0 0 512 512">
            <g>
                <g>
                    <path d="M452,68H60C26.916,68,0,94.916,0,128v256c0,33.084,26.916,60,60,60h392c33.084,0,60-26.916,60-60V128
			C512,94.916,485.084,68,452,68z M472,384c0,11.028-8.972,20-20,20H60c-11.028,0-20-8.972-20-20V128c0-11.028,8.972-20,20-20h392
			c11.028,0,20,8.972,20,20V384z"/>
                </g>
            </g>
            <g>
                <g>
                    <polygon
                        points="468.604,92.937 256,251.074 43.396,92.937 19.522,125.032 256,300.926 492.478,125.032 		"/>
                </g>
            </g>
        </symbol>

        <symbol id="icon-edit" viewBox="0 0 512 512">
            <path xmlns="http://www.w3.org/2000/svg"
                  d="M498.125,92.38l-78.505-78.506c-18.496-18.497-48.436-18.5-66.935,0C339.518,27.043,50.046,316.516,44.525,322.035    c-2.182,2.182-3.725,4.918-4.46,7.915L0.502,491.068c-3.036,12.368,8.186,23.44,20.431,20.432    c8.361-2.053,153.718-37.747,161.117-39.564c2.996-0.735,5.734-2.278,7.915-4.46c5.816-5.816,293.677-293.677,308.161-308.161    C516.622,140.818,516.627,110.879,498.125,92.38z M39.957,472.043l1.612-6.562l4.951,4.951L39.957,472.043z M84.874,461.014    l-33.887-33.887l14.736-60.009l79.16,79.16L84.874,461.014z M178.022,431.647l-97.668-97.668L332.559,81.773l97.668,97.668    L178.022,431.647z M474.24,135.429l-19.508,19.507l-97.667-97.668l19.507-19.507c5.294-5.293,13.867-5.298,19.163,0l78.506,78.507    C479.536,121.563,479.536,130.132,474.24,135.429z"/>
        </symbol>
        <symbol id="icon-personal-data" viewBox="0 0 28 28">

            <path
                d="M10.41 5c1.333 0 1.333 2 0 2l-.558.005c-1.479.028-2.141.18-2.823.545-.64.342-1.137.839-1.48 1.48-.364.68-.516 1.343-.544 2.822L5 12.41v5.18c0 1.881.142 2.62.55 3.38.342.641.839 1.138 1.48 1.48.68.365 1.343.517 2.822.545l.558.005h7.18c1.881 0 2.62-.142 3.38-.55a3.543 3.543 0 001.48-1.48c.365-.68.517-1.343.545-2.822L23 17.59v-5.18l-.005-.558c-.028-1.479-.18-2.141-.545-2.823a3.543 3.543 0 00-1.48-1.48c-.68-.364-1.343-.516-2.822-.544L17.59 7l-.133-.007c-1.156-.124-1.156-1.862 0-1.986L17.59 5H18l.071.003.172.004c1.649.038 2.581.232 3.499.69l.172.089a5.543 5.543 0 012.3 2.3c.553 1.034.764 2.03.784 3.988l.002.336v5.18c0 2.183-.203 3.233-.786 4.324a5.543 5.543 0 01-2.3 2.3c-1.034.553-2.03.764-3.988.784L10.41 25c-2.183 0-3.233-.203-4.324-.786a5.543 5.543 0 01-2.3-2.3c-.553-1.034-.764-2.03-.784-3.988L3 12.41c0-2.183.203-3.233.786-4.324a5.543 5.543 0 012.3-2.3c.976-.522 1.92-.74 3.67-.78l.172-.003L10 5h.41zM15 17a1 1 0 010 2H9a1 1 0 010-2h6zm4-5a1 1 0 010 2H9a1 1 0 010-2h10zm-5-9a1 1 0 011 1v4a1 1 0 01-2 0V4a1 1 0 011-1z">
            </path>
        </symbol>
        <symbol id="icon-personal-shield" viewBox="0 0 28 28">
            <path
                d="M13.484 1.502c.35-.05.682-.05 1.032 0 .345.05.633.127 1.296.348l6.82 2.273A2 2 0 0124 6.021V15.3c0 4.794-2.878 8.467-8.458 10.942l-.368.16a3 3 0 01-2.348 0C7.007 23.93 4 20.202 4 15.3V6.02a2 2 0 011.368-1.897l7.008-2.335c.533-.174.797-.242 1.108-.286zm.75 1.98a1.58 1.58 0 00-.467 0c-.2.029-.389.08-.947.265L6 6.021V15.3c0 4.016 2.471 7.078 7.609 9.262.25.106.532.106.775.003l.354-.154C19.641 22.236 22 19.226 22 15.3V6.02l-6.977-2.324a5.973 5.973 0 00-.668-.193zm5.173 7.01a1 1 0 01.083 1.32l-.083.095-6 6a1 1 0 01-1.32.083l-.094-.083-3.25-3.25a1 1 0 011.32-1.497l.094.083 2.543 2.542 5.293-5.292a1 1 0 011.414 0z">
                </path>

        </symbol>
    </defs>
</svg>
