<svg version="1.1" xmlns="http://www.w3.org/2000/svg" xmlns:xlink="http://www.w3.org/1999/xlink">
    <defs>
        <symbol id="icon-arrow" viewBox="0 0 13 12">
            <path d="M6.53125 2.71875L5.95293 3.29707L8.2416 5.58984L3.25 5.58984L3.25
            6.41016L8.2416 6.41016L5.95293 8.70293L6.53125 9.28125L9.8125 6L6.53125 2.71875Z"/>
        </symbol>
        <symbol id="icon-close" viewBox="0 0 32 32">
            <title>close</title>
            <path xmlns="http://www.w3.org/2000/svg"
                  d="M24.4 7.613c-0.52-0.52-1.36-0.52-1.88 0l-6.52 6.507-6.52-6.52c-0.52-0.52-1.36-0.52-1.88 0s-0.52 1.36 0 1.88l6.52 6.52-6.52 6.52c-0.52 0.52-0.52 1.36 0 1.88s1.36 0.52 1.88 0l6.52-6.52 6.52 6.52c0.52 0.52 1.36 0.52 1.88 0s0.52-1.36 0-1.88l-6.52-6.52 6.52-6.52c0.507-0.507 0.507-1.36 0-1.867z"/>
        </symbol>
        <symbol id="icon-user" viewBox="0 0 512 512">
            <title>close</title>
            <path xmlns="http://www.w3.org/2000/svg"
                  d="M437.02,330.98c-27.883-27.882-61.071-48.523-97.281-61.018C378.521,243.251,404,198.548,404,148
			C404,66.393,337.607,0,256,0S108,66.393,108,148c0,50.548,25.479,95.251,64.262,121.962
			c-36.21,12.495-69.398,33.136-97.281,61.018C26.629,379.333,0,443.62,0,512h40c0-119.103,96.897-216,216-216s216,96.897,216,216
			h40C512,443.62,485.371,379.333,437.02,330.98z M256,256c-59.551,0-108-48.448-108-108S196.449,40,256,40
			c59.551,0,108,48.448,108,108S315.551,256,256,256z"/>

        </symbol>
        <symbol id="icon-msg" viewBox="0 0 512 512">
            <g>
                <g>
                    <path d="M452,68H60C26.916,68,0,94.916,0,128v256c0,33.084,26.916,60,60,60h392c33.084,0,60-26.916,60-60V128
			C512,94.916,485.084,68,452,68z M472,384c0,11.028-8.972,20-20,20H60c-11.028,0-20-8.972-20-20V128c0-11.028,8.972-20,20-20h392
			c11.028,0,20,8.972,20,20V384z"/>
                </g>
            </g>
            <g>
                <g>
                    <polygon
                        points="468.604,92.937 256,251.074 43.396,92.937 19.522,125.032 256,300.926 492.478,125.032 		"/>
                </g>
            </g>
        </symbol>

        <symbol id="icon-edit" viewBox="0 0 512 512">
            <path xmlns="http://www.w3.org/2000/svg"
                  d="M498.125,92.38l-78.505-78.506c-18.496-18.497-48.436-18.5-66.935,0C339.518,27.043,50.046,316.516,44.525,322.035    c-2.182,2.182-3.725,4.918-4.46,7.915L0.502,491.068c-3.036,12.368,8.186,23.44,20.431,20.432    c8.361-2.053,153.718-37.747,161.117-39.564c2.996-0.735,5.734-2.278,7.915-4.46c5.816-5.816,293.677-293.677,308.161-308.161    C516.622,140.818,516.627,110.879,498.125,92.38z M39.957,472.043l1.612-6.562l4.951,4.951L39.957,472.043z M84.874,461.014    l-33.887-33.887l14.736-60.009l79.16,79.16L84.874,461.014z M178.022,431.647l-97.668-97.668L332.559,81.773l97.668,97.668    L178.022,431.647z M474.24,135.429l-19.508,19.507l-97.667-97.668l19.507-19.507c5.294-5.293,13.867-5.298,19.163,0l78.506,78.507    C479.536,121.563,479.536,130.132,474.24,135.429z"/>
        </symbol>
        <symbol id="icon-personal-data" viewBox="0 0 28 28">

            <path
                d="M10.41 5c1.333 0 1.333 2 0 2l-.558.005c-1.479.028-2.141.18-2.823.545-.64.342-1.137.839-1.48 1.48-.364.68-.516 1.343-.544 2.822L5 12.41v5.18c0 1.881.142 2.62.55 3.38.342.641.839 1.138 1.48 1.48.68.365 1.343.517 2.822.545l.558.005h7.18c1.881 0 2.62-.142 3.38-.55a3.543 3.543 0 001.48-1.48c.365-.68.517-1.343.545-2.822L23 17.59v-5.18l-.005-.558c-.028-1.479-.18-2.141-.545-2.823a3.543 3.543 0 00-1.48-1.48c-.68-.364-1.343-.516-2.822-.544L17.59 7l-.133-.007c-1.156-.124-1.156-1.862 0-1.986L17.59 5H18l.071.003.172.004c1.649.038 2.581.232 3.499.69l.172.089a5.543 5.543 0 012.3 2.3c.553 1.034.764 2.03.784 3.988l.002.336v5.18c0 2.183-.203 3.233-.786 4.324a5.543 5.543 0 01-2.3 2.3c-1.034.553-2.03.764-3.988.784L10.41 25c-2.183 0-3.233-.203-4.324-.786a5.543 5.543 0 01-2.3-2.3c-.553-1.034-.764-2.03-.784-3.988L3 12.41c0-2.183.203-3.233.786-4.324a5.543 5.543 0 012.3-2.3c.976-.522 1.92-.74 3.67-.78l.172-.003L10 5h.41zM15 17a1 1 0 010 2H9a1 1 0 010-2h6zm4-5a1 1 0 010 2H9a1 1 0 010-2h10zm-5-9a1 1 0 011 1v4a1 1 0 01-2 0V4a1 1 0 011-1z">
            </path>
        </symbol>
        <symbol id="icon-personal-shield" viewBox="0 0 28 28">
            <path
                d="M13.484 1.502c.35-.05.682-.05 1.032 0 .345.05.633.127 1.296.348l6.82 2.273A2 2 0 0124 6.021V15.3c0 4.794-2.878 8.467-8.458 10.942l-.368.16a3 3 0 01-2.348 0C7.007 23.93 4 20.202 4 15.3V6.02a2 2 0 011.368-1.897l7.008-2.335c.533-.174.797-.242 1.108-.286zm.75 1.98a1.58 1.58 0 00-.467 0c-.2.029-.389.08-.947.265L6 6.021V15.3c0 4.016 2.471 7.078 7.609 9.262.25.106.532.106.775.003l.354-.154C19.641 22.236 22 19.226 22 15.3V6.02l-6.977-2.324a5.973 5.973 0 00-.668-.193zm5.173 7.01a1 1 0 01.083 1.32l-.083.095-6 6a1 1 0 01-1.32.083l-.094-.083-3.25-3.25a1 1 0 011.32-1.497l.094.083 2.543 2.542 5.293-5.292a1 1 0 011.414 0z">
                </path>
        </symbol>
        <symbol id="social-vk" viewBox="0 0 112.196 112.196">
            <path style="fill-rule:evenodd;clip-rule:evenodd;fill:#4D76A1;" d="M53.979,80.702h4.403c0,0,1.33-0.146,2.009-0.878
		c0.625-0.672,0.605-1.934,0.605-1.934s-0.086-5.908,2.656-6.778c2.703-0.857,6.174,5.71,9.853,8.235
		c2.782,1.911,4.896,1.492,4.896,1.492l9.837-0.137c0,0,5.146-0.317,2.706-4.363c-0.2-0.331-1.421-2.993-7.314-8.463
		c-6.168-5.725-5.342-4.799,2.088-14.702c4.525-6.031,6.334-9.713,5.769-11.29c-0.539-1.502-3.867-1.105-3.867-1.105l-11.076,0.069
		c0,0-0.821-0.112-1.43,0.252c-0.595,0.357-0.978,1.189-0.978,1.189s-1.753,4.667-4.091,8.636c-4.932,8.375-6.904,8.817-7.71,8.297
		c-1.875-1.212-1.407-4.869-1.407-7.467c0-8.116,1.231-11.5-2.397-12.376c-1.204-0.291-2.09-0.483-5.169-0.514
		c-3.952-0.041-7.297,0.012-9.191,0.94c-1.26,0.617-2.232,1.992-1.64,2.071c0.732,0.098,2.39,0.447,3.269,1.644
		c1.135,1.544,1.095,5.012,1.095,5.012s0.652,9.554-1.523,10.741c-1.493,0.814-3.541-0.848-7.938-8.446
		c-2.253-3.892-3.954-8.194-3.954-8.194s-0.328-0.804-0.913-1.234c-0.71-0.521-1.702-0.687-1.702-0.687l-10.525,0.069
		c0,0-1.58,0.044-2.16,0.731c-0.516,0.611-0.041,1.875-0.041,1.875s8.24,19.278,17.57,28.993
		C44.264,81.287,53.979,80.702,53.979,80.702L53.979,80.702z"/>
        </symbol>
        <symbol id="social-fb" viewBox="0 0 112.196 112.196">
            <path style="fill:#3B5998;" d="M70.201,58.294h-10.01v36.672H45.025V58.294h-7.213V45.406h7.213v-8.34
		c0-5.964,2.833-15.303,15.301-15.303L71.56,21.81v12.51h-8.151c-1.337,0-3.217,0.668-3.217,3.513v7.585h11.334L70.201,58.294z"/>
        </symbol>
        <symbol id="social-google" viewBox="0 0 512 512">
            <path style="fill:#FBBB00;" d="M113.47,309.408L95.648,375.94l-65.139,1.378C11.042,341.211,0,299.9,0,256
	c0-42.451,10.324-82.483,28.624-117.732h0.014l57.992,10.632l25.404,57.644c-5.317,15.501-8.215,32.141-8.215,49.456
	C103.821,274.792,107.225,292.797,113.47,309.408z"/>
            <path style="fill:#518EF8;" d="M507.527,208.176C510.467,223.662,512,239.655,512,256c0,18.328-1.927,36.206-5.598,53.451
	c-12.462,58.683-45.025,109.925-90.134,146.187l-0.014-0.014l-73.044-3.727l-10.338-64.535
	c29.932-17.554,53.324-45.025,65.646-77.911h-136.89V208.176h138.887L507.527,208.176L507.527,208.176z"/>
            <path style="fill:#28B446;" d="M416.253,455.624l0.014,0.014C372.396,490.901,316.666,512,256,512
	c-97.491,0-182.252-54.491-225.491-134.681l82.961-67.91c21.619,57.698,77.278,98.771,142.53,98.771
	c28.047,0,54.323-7.582,76.87-20.818L416.253,455.624z"/>
            <path style="fill:#F14336;" d="M419.404,58.936l-82.933,67.896c-23.335-14.586-50.919-23.012-80.471-23.012
	c-66.729,0-123.429,42.957-143.965,102.724l-83.397-68.276h-0.014C71.23,56.123,157.06,0,256,0
	C318.115,0,375.068,22.126,419.404,58.936z"/>
        </symbol>
    </defs>
</svg>
