<svg id="bold" enable-background="new 0 0 32 32" height="512" viewBox="0 0 32 32" width="512" xmlns="http://www.w3.org/2000/svg"><path d="m26 32h-20c-3.314 0-6-2.686-6-6v-20c0-3.314 2.686-6 6-6h20c3.314 0 6 2.686 6 6v20c0 3.314-2.686 6-6 6z" fill="#e3f8fa"/><path d="m19.667 15.333c-2.389 0-4.333 1.944-4.333 4.333s1.943 4.334 4.333 4.334 4.333-1.944 4.333-4.333-1.944-4.334-4.333-4.334zm1.957 3.704c-.081.18-.26.297-.457.297h-.833v2.666c0 .368-.298.667-.667.667s-.667-.299-.667-.667v-2.667h-.833c-.197 0-.376-.116-.457-.297-.08-.18-.047-.391.085-.538l1.5-1.667c.095-.105.23-.165.372-.165s.277.06.372.165l1.5 1.667c.132.148.165.358.085.539z" fill="#8ce1eb"/><g fill="#26c6da"><path d="m20.667 8h-10.667c-1.105 0-2 .895-2 2s.895 2 2 2h10.667c1.105 0 2-.895 2-2s-.896-2-2-2zm-10.667 2.667c-.368 0-.667-.299-.667-.667s.299-.667.667-.667.667.298.667.667c0 .368-.299.667-.667.667zm2.667 0c-.369 0-.667-.299-.667-.667s.298-.667.667-.667c.368 0 .667.298.667.667-.001.368-.299.667-.667.667z"/><path d="m20.667 13.333h-10.667c-1.107 0-2 .893-2 2s.893 2 2 2h4.507c.886-1.966 2.866-3.333 5.16-3.333 1.067 0 2.073.3 2.927.82-.221-.86-1.001-1.487-1.927-1.487zm-10.667 2.667c-.367 0-.667-.3-.667-.667s.3-.667.667-.667.667.3.667.667-.3.667-.667.667zm2.667 0c-.367 0-.667-.3-.667-.667s.3-.667.667-.667.667.3.667.667-.301.667-.667.667z"/><path d="m14 19.667c0-.34.033-.673.093-1h-4.093c-1.107 0-2 .893-2 2s.893 2 2 2h4.86c-.547-.867-.86-1.9-.86-3zm-4 1.666c-.367 0-.667-.3-.667-.667 0-.366.3-.666.667-.666s.667.3.667.667c0 .366-.3.666-.667.666zm2.667 0c-.367 0-.667-.3-.667-.667 0-.366.3-.666.667-.666s.667.3.667.667c-.001.366-.301.666-.667.666z"/></g></svg>