<svg xmlns="http://www.w3.org/2000/svg" style="display: none;">
	<symbol id="google" viewBox="0 0 512 512">
		<title>google</title>
		<path style="fill:#167EE6;" d="M492.668,211.489l-208.84-0.01c-9.222,0-16.697,7.474-16.697,16.696v66.715 c0,9.22,7.475,16.696,16.696,16.696h117.606c-12.878,33.421-36.914,61.41-67.58,79.194L384,477.589 c80.442-46.523,128-128.152,128-219.53c0-13.011-0.959-22.312-2.877-32.785C507.665,217.317,500.757,211.489,492.668,211.489z"/>
		<path style="fill:#12B347;" d="M256,411.826c-57.554,0-107.798-31.446-134.783-77.979l-86.806,50.034 C78.586,460.443,161.34,512,256,512c46.437,0,90.254-12.503,128-34.292v-0.119l-50.147-86.81 C310.915,404.083,284.371,411.826,256,411.826z"/><path style="fill:#0F993E;" d="M384,477.708v-0.119l-50.147-86.81c-22.938,13.303-49.48,21.047-77.853,21.047V512 C302.437,512,346.256,499.497,384,477.708z"/><path style="fill:#FFD500;" d="M100.174,256c0-28.369,7.742-54.91,21.043-77.847l-86.806-50.034C12.502,165.746,0,209.444,0,256 s12.502,90.254,34.411,127.881l86.806-50.034C107.916,310.91,100.174,284.369,100.174,256z"/><path style="fill:#FF4B26;" d="M256,100.174c37.531,0,72.005,13.336,98.932,35.519c6.643,5.472,16.298,5.077,22.383-1.008 l47.27-47.27c6.904-6.904,6.412-18.205-0.963-24.603C378.507,23.673,319.807,0,256,0C161.34,0,78.586,51.557,34.411,128.119 l86.806,50.034C148.202,131.62,198.446,100.174,256,100.174z"/><path style="fill:#D93F21;" d="M354.932,135.693c6.643,5.472,16.299,5.077,22.383-1.008l47.27-47.27 c6.903-6.904,6.411-18.205-0.963-24.603C378.507,23.672,319.807,0,256,0v100.174C293.53,100.174,328.005,113.51,354.932,135.693z"/>
	</symbol>
	<symbol id="facebook" viewBox="0 0 512 512"><title>facebook</title><path style="fill:#1976D2;" d="M448,0H64C28.704,0,0,28.704,0,64v384c0,35.296,28.704,64,64,64h384c35.296,0,64-28.704,64-64V64 C512,28.704,483.296,0,448,0z"/><path style="fill:#FAFAFA;" d="M432,256h-80v-64c0-17.664,14.336-16,32-16h32V96h-64l0,0c-53.024,0-96,42.976-96,96v64h-64v80h64 v176h96V336h48L432,256z"/>
</symbol>
<symbol id="instagram" viewBox="0 0 512 512">
	<title>instagram</title>
	<linearGradient id="SVGID_1_" gradientUnits="userSpaceOnUse" x1="-46.0041" y1="634.1208" x2="-32.9334" y2="647.1917" gradientTransform="matrix(32 0 0 -32 1519 20757)"> <stop offset="0" style="stop-color:#FFC107"/> <stop offset="0.507" style="stop-color:#F44336"/> <stop offset="0.99" style="stop-color:#9C27B0"/> 
</linearGradient><path style="fill:url(#SVGID_1_);" d="M352,0H160C71.648,0,0,71.648,0,160v192c0,88.352,71.648,160,160,160h192 c88.352,0,160-71.648,160-160V160C512,71.648,440.352,0,352,0z M464,352c0,61.76-50.24,112-112,112H160c-61.76,0-112-50.24-112-112 V160C48,98.24,98.24,48,160,48h192c61.76,0,112,50.24,112,112V352z"/><linearGradient id="SVGID_2_" gradientUnits="userSpaceOnUse" x1="-42.2971" y1="637.8279" x2="-36.6404" y2="643.4846" gradientTransform="matrix(32 0 0 -32 1519 20757)"> <stop offset="0" style="stop-color:#FFC107"/> <stop offset="0.507" style="stop-color:#F44336"/> <stop offset="0.99" style="stop-color:#9C27B0"/> </linearGradient><path style="fill:url(#SVGID_2_);" d="M256,128c-70.688,0-128,57.312-128,128s57.312,128,128,128s128-57.312,128-128 S326.688,128,256,128z M256,336c-44.096,0-80-35.904-80-80c0-44.128,35.904-80,80-80s80,35.872,80,80 C336,300.096,300.096,336,256,336z"/><linearGradient id="SVGID_3_" gradientUnits="userSpaceOnUse" x1="-35.5456" y1="644.5793" x2="-34.7919" y2="645.3331" gradientTransform="matrix(32 0 0 -32 1519 20757)"> <stop offset="0" style="stop-color:#FFC107"/> <stop offset="0.507" style="stop-color:#F44336"/> <stop offset="0.99" style="stop-color:#9C27B0"/> </linearGradient><circle style="fill:url(#SVGID_3_);" cx="393.6" cy="118.4" r="17.056"/>
</symbol>
<symbol id="vk" viewBox="0 0 511.962 511.962"><title>vk</title><path style="fill:#1E88E5;" d="M250.503,400.807h30.592c0,0,9.248-1.024,13.952-6.112c4.352-4.672,4.192-13.44,4.192-13.44 s-0.608-41.056,18.464-47.104c18.784-5.952,42.912,39.68,68.48,57.248c19.328,13.28,34.016,10.368,34.016,10.368l68.384-0.96 c0,0,35.776-2.208,18.816-30.336c-1.376-2.304-9.888-20.8-50.848-58.816c-42.88-39.808-37.12-33.344,14.528-102.176 c31.456-41.92,44.032-67.52,40.096-78.464c-3.744-10.432-26.88-7.68-26.88-7.68l-76.928,0.448c0,0-5.696-0.768-9.952,1.76 c-4.128,2.496-6.784,8.256-6.784,8.256s-12.192,32.448-28.448,60.032c-34.272,58.208-48,61.28-53.6,57.664 c-13.024-8.416-9.76-33.856-9.76-51.904c0-56.416,8.544-79.936-16.672-86.016c-8.384-2.016-14.528-3.36-35.936-3.584 c-27.456-0.288-50.72,0.096-63.872,6.528c-8.768,4.288-15.52,13.856-11.392,14.4c5.088,0.672,16.608,3.104,22.72,11.424 c7.904,10.72,7.616,34.848,7.616,34.848s4.544,66.4-10.592,74.656c-10.4,5.664-24.64-5.888-55.2-58.72 c-15.648-27.04-27.488-56.96-27.488-56.96s-2.272-5.568-6.336-8.544c-4.928-3.616-11.84-4.768-11.84-4.768l-73.152,0.448 c0,0-10.976,0.32-15.008,5.088c-3.584,4.256-0.288,13.024-0.288,13.024s57.28,133.984,122.112,201.536 C182.983,404.871,250.503,400.807,250.503,400.807L250.503,400.807z"/>
</symbol></svg>